<svg viewBox="0 0 4987.999 1024" version="1.1" xmlns="http://www.w3.org/2000/svg"><path fill="none" d="M3957.3986464711566 723.0370609087978H3457.1137608765707a33.00032226877215 33.00032226877215 0 0 0-33.00032226877215 33.00032226877215v52.47051240734773H3990.3989687399285V757.3573960683209A33.00032226877215 33.00032226877215 0 0 0 3957.3986464711566 723.0370609087978Z"/><path fill="none" d="M2543.33483725427 837.8781824041249v0h150.481469545601v0a36.30035449564937 36.30035449564937 0 0 0 30.690299709958104-40.590396390589746v-15.51015146632291a29.700290041894938 29.700290041894938 0 0 1-8.910087012568482-6.930067676442151l-203.28198517563646-227.3722204318401v264.0025781501772h0A30.690299709958104 30.690299709958104 0 0 0 2543.33483725427 837.8781824041249Z"/><path fill="none" d="M3423.783435385111 924.0090235256203a33.00032226877215 33.00032226877215 0 0 0 33.00032226877215 33.00032226877215H3957.3986464711566a33.00032226877215 33.00032226877215 0 0 0 33.00032226877215-33.00032226877215V869.5584917821462H3423.783435385111Z"/><path fill="none" d="M1711.3967128585239 776.167579761521a28.050273928456328 28.050273928456328 0 0 0-23.760232033515948 9.900096680631645 35.64034805027393 35.64034805027393 0 0 0-9.900096680631645 24.750241701579114v147.5114405414115h140.25136964228165V776.167579761521H1711.3967128585239Z"/><path fill="none" d="M3141.960683209797 636.9062197873026a33.00032226877215 33.00032226877215 0 0 0 9.900096680631645-24.09023525620367V504.5749274895262a36.96036094102482 36.96036094102482 0 0 0-9.900096680631645-25.080244924266836 29.370286819207216 29.370286819207216 0 0 0-23.100225588140503-9.570093457943923H2912.938446664518a29.370286819207216 29.370286819207216 0 0 0-23.100225588140503 9.570093457943923 36.96036094102482 36.96036094102482 0 0 0-9.900096680631645 25.080244924266836v108.24105704157265a33.00032226877215 33.00032226877215 0 0 0 9.900096680631645 24.09023525620367 26.070254592330002 26.070254592330002 0 0 0 11.550112794070252 8.58008378988076 38.28037383177569 38.28037383177569 0 0 0 12.540122462133418 1.980019336126329h203.94199162101188a34.980341604898484 34.980341604898484 0 0 0 12.210119239445696-1.980019336126329A26.730261037705446 26.730261037705446 0 0 0 3141.960683209797 636.9062197873026Z"/><path fill="none" d="M1877.7183370931355 776.167579761521H2017.969706735417V958.3293586851432H1877.7183370931355V776.167579761521z"/><path fill="none" d="M4007.889139542378 302.9429584273284h-144.87141475990973a33.00032226877215 33.00032226877215 0 0 0-33.00032226877215 34.980341604898484V529.9851756364807a33.00032226877215 33.00032226877215 0 0 0 33.00032226877215 33.00032226877215h144.87141475990973a33.00032226877215 33.00032226877215 0 0 0 34.980341604898484-33.00032226877215V337.92330003222685A35.310344827586206 35.310344827586206 0 0 0 4007.889139542378 302.9429584273284Z"/><path fill="none" d="M2183.9613277473413 776.167579761521H2076.3802771511437v182.16177892362225h140.25136964228165V810.8179181437317a35.64034805027393 35.64034805027393 0 0 0-9.900096680631645-24.750241701579114A28.050273928456328 28.050273928456328 0 0 0 2183.9613277473413 776.167579761521Z"/><path fill="#1768ef" d="M1068.2204318401548 271.59265227199484c-29.040283596519494-8.58008378988076-20.790203029326456-12.540122462133418-23.760232033515948-41.910409281340634A259.71253625523684 259.71253625523684 0 0 0 1020.369964550435 145.2014179825975C969.219465033838 34.980341604898484 838.8681920721882 0.9900096680631655 730.9571382533031 29.370286819207216c-66.0006445375443 17.490170802449242-125.40122462133417 82.83080889461809-170.2816629068643 132.0012890750886C522.0650982919753 203.94199162101188 591.3657750563971 147.1814373187238 599.9458588462777 134.64131485659038c99.00096680631646-107.5810505961972 266.642603931679-39.9303899452143 340.5633258137286 53.46052207541089A235.29229777634544 235.29229777634544 0 0 1 980.7695778279083 314.4930712213986c2.6400257815017723 27.06026426039316 95.70093457943923 53.13051885272317 125.07122139864646 72.93071221398645a333.3032549145987 333.3032549145987 0 0 1 144.54141153722202 264.0025781501772 221.43216242346114 221.43216242346114 0 0 1-50.820496293909116 160.38156622623268c-26.400257815017724 26.400257815017724-109.23106670963583 25.080244924266836-140.58137286496935 23.100225588140503-179.85175636480824-11.880116016757974-209.55204640670314-220.44215275539796-231.00225588140506-359.37350950692877a358.38349983886553 358.38349983886553 0 0 0-351.45343216242344-300.30293264582656 305.9129874315178 305.9129874315178 0 0 0-73.5907186593619 9.240090235256204h0a132.0012890750886 132.0012890750886 0 0 1 59.7305833064776-93.06090879793746c8.58008378988076-5.610054785691267 5.2800515630035445-37.95037060908797 5.2800515630035445-46.20045117628101a433.2942313889784 433.2942313889784 0 0 0-5.2800515630035445-46.53045439896873 153.12149532710276 153.12149532710276 0 0 0-64.3506284241057 105.6010312600709 118.14115372220431 118.14115372220431 0 0 0-108.57106026426038-39.9303899452143c-12.87012568482114 2.9700290041894934-1.6500161134386078 93.06090879793746 0 92.73090557524975a116.16113438607798 116.16113438607798 0 0 1 99.00096680631646 31.02030293264582C150.15146632291328 260.04253947792455-23.10022558814051 600.9358685143409 2.3100225588140453 825.0080567193038c13.860135352884303 123.09120206252013 122.76119883983242 191.07186593619076 234.96229455365773 191.07186593619076H1119.3709313567515c26.070254592330002 0 50.490493071221394-66.0006445375443 66.0006445375443-66.0006445375443H266.642603931679A209.8820496293909 209.8820496293909 0 0 1 109.56106993232355 858.6683854334514C30.36029648727038 761.6474379632613 67.6506606509829 620.7360618756043 106.26103770544633 515.4650338382211c60.39058975185304-165.00161134386076 170.2816629068643-287.1028037383177 351.45343216242344-271.59265227199484 172.26168224299062 14.520141798259747 308.8830164357073 182.82178536899772 313.17305833064773 351.78343538511115 4.29004189494038 180.84176603287142 136.95133741540445 345.8433773767322 327.36319690621974 297.00290041894937 102.63100225588138-26.730261037705446 194.04189494038025-148.17144698678698 213.84208830164357-246.84241057041572 22.110215920077344-110.55107960038671-25.74025136964228-213.84208830164357-101.97099581050594-290.7328391878827A333.6332581372864 333.6332581372864 0 0 0 1068.2204318401548 271.59265227199484Z"/><path fill="#1768ef" d="M2323.22268772156 495.66484047695775v0a28.050273928456328 28.050273928456328 0 0 0-29.370286819207216-28.38027715114405H1994.8694811472767l11.550112794070252-33.00032226877215a30.03029326458266 30.03029326458266 0 0 0-17.820174025136964-36.30035449564937l-2.6400257815017723 0a28.38027715114405 28.38027715114405 0 0 0-37.290364163712525 16.170157911698354l-28.38027715114405 72.60070899129875a29.040283596519494 29.040283596519494 0 0 0 27.390267483080883 39.27038349983886H2293.8524009023527A28.38027715114405 28.38027715114405 0 0 0 2323.22268772156 495.66484047695775Z"/><path fill="#1768ef" d="M1812.3776990009667 396.993876893329a29.040283596519494 29.040283596519494 0 0 0-29.370286819207216 29.370286819207216V665.2864969384466a30.03029326458266 30.03029326458266 0 0 0 29.370286819207216 29.370286819207216h1.6500161134386078A30.03029326458266 30.03029326458266 0 0 0 1845.3780212697388 665.2864969384466V426.36416371253625a29.040283596519494 29.040283596519494 0 0 0-29.370286819207216-29.370286819207216Z"/><path fill="#1768ef" d="M1575.7653883338703 331.3232355784724h134.9713180792781v24.750241701579114a28.710280373831772 28.710280373831772 0 0 0 28.38027715114405 29.370286819207216h0a29.040283596519494 29.040283596519494 0 0 0 29.370286819207216-29.370286819207216V331.3232355784724H2122.580728327425v24.750241701579114a29.370286819207216 29.370286819207216 0 0 0 28.38027715114405 29.370286819207216h0a29.370286819207216 29.370286819207216 0 0 0 29.370286819207216-29.370286819207216V331.3232355784724h134.31131163390268a29.370286819207216 29.370286819207216 0 0 0 29.040283596519494-29.370286819207216v0a28.710280373831772 28.710280373831772 0 0 0-29.040283596519494-29.370286819207216H2181.9813084112147V246.18240412504025a29.370286819207216 29.370286819207216 0 0 0-29.370286819207216-28.710280373831772h0A29.370286819207216 29.370286819207216 0 0 0 2122.580728327425 246.18240412504025v27.390267483080883H1770.1372864969383V246.18240412504025a29.040283596519494 29.040283596519494 0 0 0-29.370286819207216-28.710280373831772h0a28.710280373831772 28.710280373831772 0 0 0-28.38027715114405 28.710280373831772v27.390267483080883H1575.7653883338703a28.710280373831772 28.710280373831772 0 0 0-28.38027715114405 29.370286819207216v0A29.370286819207216 29.370286819207216 0 0 0 1575.7653883338703 331.3232355784724Z"/><path fill="#1768ef" d="M1961.8691588785045 611.1659684176602a28.050273928456328 28.050273928456328 0 0 0-28.38027715114405 29.040283596519494v0a28.050273928456328 28.050273928456328 0 0 0 28.38027715114405 28.38027715114405H2274.3822107637766a28.050273928456328 28.050273928456328 0 0 0 29.040283596519494-28.38027715114405v0a28.050273928456328 28.050273928456328 0 0 0-29.040283596519494-29.040283596519494Z"/><path fill="#1768ef" d="M1657.2761843377375 424.7141475990976a29.700290041894938 29.700290041894938 0 0 0-29.370286819207216 29.040283596519494V642.1862713503061a29.700290041894938 29.700290041894938 0 0 0 29.370286819207216 29.040283596519494h1.6500161134386078a30.03029326458266 30.03029326458266 0 0 0 29.370286819207216-29.040283596519494V453.7544311956171a30.03029326458266 30.03029326458266 0 0 0-29.370286819207216-29.040283596519494Z"/><path fill="#1768ef" d="M3206.971318079278 294.0328714147599H3046.2597486303575V249.8124395746052a29.700290041894938 29.700290041894938 0 0 0-29.370286819207216-29.370286819207216h-1.980019336126329a29.370286819207216 29.370286819207216 0 0 0-29.040283596519494 29.370286819207216V294.0328714147599h-161.70157911698357a30.03029326458266 30.03029326458266 0 0 0-29.370286819207216 29.370286819207216v1.6500161134386078a29.370286819207216 29.370286819207216 0 0 0 29.370286819207216 29.370286819207216h382.80373831775694a28.710280373831772 28.710280373831772 0 0 0 29.040283596519494-29.370286819207216V323.40315823396713A29.370286819207216 29.370286819207216 0 0 0 3206.971318079278 294.0328714147599Z"/><path fill="#1768ef" d="M2452.5839510151463 825.998066387367a12.540122462133418 12.540122462133418 0 0 0 0 3.3000322268772155A76.89075088623912 76.89075088623912 0 0 0 2475.0241701579116 873.1885272317112a73.26071543667419 73.26071543667419 0 0 0 55.11053818884949 22.77022236545278H2703.386400257815a66.0006445375443 66.0006445375443 0 0 0 29.040283596519494-5.940058008378987 78.21076377699 78.21076377699 0 0 0 48.84047695778278-71.9407025459233V513.4850145020947a75.57073799548823 75.57073799548823 0 0 0-23.100225588140503-55.11053818884949 76.56074766355138 76.56074766355138 0 0 0-54.78053496616177-23.100225588140503L2741.6667740895905 345.18337093135676a33.00032226877215 33.00032226877215 0 0 0-2.6400257815017723-27.720270705768606 29.700290041894938 29.700290041894938 0 0 0-25.080244924266836-13.200128907508862H2544.324846922333L2553.2349339349016 279.18272639381246a30.690299709958104 30.690299709958104 0 0 0-19.470190138575568-37.290364163712525l0 0a29.700290041894938 29.700290041894938 0 0 0-36.30035449564937 18.48018047051241l-21.4502094747019 66.0006445375443a25.080244924266836 25.080244924266836 0 0 0 4.620045117628102 25.74025136964228 26.730261037705446 26.730261037705446 0 0 0 23.100225588140503 12.540122462133418h165.00161134386076l-28.38027715114405 70.95069287786012 0 2.310022558814051a35.97035127296165 35.97035127296165 0 0 0 0 39.60038672252658 35.97035127296165 35.97035127296165 0 0 0 28.050273928456328 16.500161134386076h26.070254592330002a30.690299709958104 30.690299709958104 0 0 1 30.690299709958104 30.690299709958104 33.00032226877215 33.00032226877215 0 0 1 0 9.900096680631645v157.7415404447309l-216.15211086045758-242.22236545278759a29.370286819207216 29.370286819207216 0 0 0-25.080244924266836-14.190138575572025h-1.980019336126329a29.040283596519494 29.040283596519494 0 0 0-29.040283596519494 29.370286819207216V822.3680309378021a13.53013213019658 13.53013213019658 0 0 0 0 3.6300354495649367Zm59.7305833064776-278.52271994843693L2715.5965194972605 774.1875604253947a29.700290041894938 29.700290041894938 0 0 0 8.910087012568482 6.930067676442151v15.51015146632291a36.30035449564937 36.30035449564937 0 0 1-30.690299709958104 40.590396390589746v0H2543.33483725427v0a30.690299709958104 30.690299709958104 0 0 1-30.360296487270382-26.400257815017724h0Z"/><path fill="#1768ef" d="M3202.681276184337 959.3193683532064H3198.391234289397a27.390267483080883 27.390267483080883 0 0 1-25.74025136964228-27.390267483080883s0-3.3000322268772155 0-4.29004189494038V767.917499194328a31.02030293264582 31.02030293264582 0 1 0-62.04060586529164 0V939.1891717692555a78.87077022236545 78.87077022236545 0 0 0 78.87077022236545 78.54076699967771H3198.391234289397a33.00032226877215 33.00032226877215 0 0 0 15.51015146632291-4.29004189494038 30.690299709958104 30.690299709958104 0 0 0 15.51015146632291-26.730261037705446A25.74025136964228 25.74025136964228 0 0 0 3202.681276184337 959.3193683532064Z"/><path fill="#1768ef" d="M2896.1082823074444 736.8971962616822a31.02030293264582 31.02030293264582 0 0 0-30.690299709958104 31.02030293264582v165.00161134386076a25.410248146954558 25.410248146954558 0 0 1-25.410248146954558 25.410248146954558h-561.0054785691266V810.8179181437317a95.04092813406379 95.04092813406379 0 0 0-7.2600708991298735-36.30035449564937 93.3909120206252 93.3909120206252 0 0 0-86.79084756687075-57.750563970351266H1711.3967128585239A93.3909120206252 93.3909120206252 0 0 0 1624.6058652916531 774.1875604253947a95.04092813406379 95.04092813406379 0 0 0-7.2600708991298735 36.30035449564937v147.5114405414115H1575.7653883338703a28.710280373831772 28.710280373831772 0 0 0-28.38027715114405 29.370286819207216v0a29.370286819207216 29.370286819207216 0 0 0 28.38027715114405 29.370286819207216H2848.587818240412A78.87077022236545 78.87077022236545 0 0 0 2927.12858524009 939.1891717692555V767.917499194328A31.02030293264582 31.02030293264582 0 0 0 2896.1082823074444 736.8971962616822ZM1817.987753786658 958.3293586851432H1677.7363841443764V810.8179181437317a35.64034805027393 35.64034805027393 0 0 1 9.900096680631645-24.750241701579114 28.050273928456328 28.050273928456328 0 0 1 23.760232033515948-9.900096680631645h106.59104092813405Zm199.98195294875921 0H1878.378343538511V776.167579761521h140.58137286496935Zm199.6519497260715 0H2076.3802771511437V776.167579761521h106.59104092813405a28.050273928456328 28.050273928456328 0 0 1 23.760232033515948 9.900096680631645 35.64034805027393 35.64034805027393 0 0 1 9.900096680631645 24.750241701579114Z"/><path fill="#1768ef" d="M3185.521108604576 679.4766355140187c2.6400257815017723-2.9700290041894934 4.620045117628102-6.270061231066709 6.930067676442151-9.240090235256204a91.74089590718657 91.74089590718657 0 0 0 20.460199806638734-57.420560747663544V504.5749274895262a103.29100870125683 103.29100870125683 0 0 0-7.920077344505316-37.290364163712525 99.00096680631646 99.00096680631646 0 0 0-19.470190138575568-29.370286819207216 96.36094102481468 96.36094102481468 0 0 0-66.0006445375443-28.38027715114405H2912.938446664518a96.36094102481468 96.36094102481468 0 0 0-66.0006445375443 28.38027715114405 99.00096680631646 99.00096680631646 0 0 0-19.470190138575568 29.370286819207216 103.29100870125683 103.29100870125683 0 0 0-7.920077344505316 37.290364163712525v108.24105704157265a91.74089590718657 91.74089590718657 0 0 0 20.460199806638734 57.420560747663544c2.310022558814051 2.9700290041894934 4.29004189494038 6.270061231066709 6.930067676442151 9.240090235256204a94.05091846600064 94.05091846600064 0 0 0 66.0006445375443 27.390267483080883h0l74.25072510473734 0v286.11279407025455a28.710280373831772 28.710280373831772 0 0 0 29.700290041894938 29.700290041894938h3.6300354495649367a31.02030293264582 31.02030293264582 0 0 0 30.690299709958104-31.02030293264582V708.1869158878504l66.0006445375443 0A93.7209152433129 93.7209152433129 0 0 0 3185.521108604576 679.4766355140187Zm-271.59265227199484-33.00032226877215A38.28037383177569 38.28037383177569 0 0 1 2901.3883338704477 645.4863035771833a26.070254592330002 26.070254592330002 0 0 1-11.550112794070252-8.58008378988076 33.00032226877215 33.00032226877215 0 0 1-9.900096680631645-24.09023525620367V504.5749274895262a36.96036094102482 36.96036094102482 0 0 1 9.900096680631645-25.080244924266836 29.370286819207216 29.370286819207216 0 0 1 23.100225588140503-9.570093457943923h205.92201095713824a29.370286819207216 29.370286819207216 0 0 1 23.100225588140503 9.570093457943923 36.96036094102482 36.96036094102482 0 0 1 9.900096680631645 25.080244924266836v108.24105704157265a33.00032226877215 33.00032226877215 0 0 1-9.900096680631645 24.09023525620367 26.730261037705446 26.730261037705446 0 0 1-11.880116016757974 8.58008378988076 34.980341604898484 34.980341604898484 0 0 1-12.210119239445696 1.980019336126329Z"/><path fill="#1768ef" d="M4261.00161134386 316.8030937802127h660.006445375443a27.06026426039316 27.06026426039316 0 0 0 26.070254592330002-28.38027715114405v0a27.06026426039316 27.06026426039316 0 0 0-26.070254592330002-29.370286819207216h-660.006445375443a27.06026426039316 27.06026426039316 0 0 0-25.410248146954558 29.370286819207216v0A26.730261037705446 26.730261037705446 0 0 0 4261.00161134386 316.8030937802127Z"/><path fill="#1768ef" d="M4961.92845633258 495.66484047695775H4226.681276184337a26.730261037705446 26.730261037705446 0 0 0-25.080244924266836 29.370286819207216v0a26.400257815017724 26.400257815017724 0 0 0 25.080244924266836 28.38027715114405h735.2471801482436a26.730261037705446 26.730261037705446 0 0 0 26.070254592330002-28.38027715114405v0A27.06026426039316 27.06026426039316 0 0 0 4961.92845633258 495.66484047695775Z"/><path fill="#1768ef" d="M4903.847889139542 708.1869158878504a29.370286819207216 29.370286819207216 0 0 0-29.040283596519494 26.400257815017724h-1.6500161134386078V906.1888495004833a50.820496293909116 50.820496293909116 0 0 1-50.820496293909116 50.820496293909116H4320.40219142765l95.04092813406379-403.59394134708344H4353.402513696422l-104.94102481469545 462.0045117628101h572.5555913631969A110.55107960038671 110.55107960038671 0 0 0 4932.888172736061 906.1888495004833V741.1872381566226s0-2.6400257815017723 0-4.29004189494038A29.700290041894938 29.700290041894938 0 0 0 4903.847889139542 708.1869158878504Z"/><path fill="#1768ef" d="M3528.3944569771184 493.3548179181437l168.63164679342572 141.24137931034483 0-1.980019336126329a29.370286819207216 29.370286819207216 0 0 0 20.13019658395101 8.250080567193038 29.700290041894938 29.700290041894938 0 0 0 30.03029326458266-29.700290041894938 29.370286819207216 29.370286819207216 0 0 0-21.4502094747019-28.050273928456328l-128.7012568482114-109.23106670963583-3.960038672252658-5.2800515630035445h109.56106993232353a28.38027715114405 28.38027715114405 0 0 0 29.370286819207216-28.38027715114405v0a28.710280373831772 28.710280373831772 0 0 0-29.370286819207216-29.370286819207216h-148.8314534321624a255.75249758298418 255.75249758298418 0 0 0 2.9700290041894934-39.27038349983886V334.95327102803736h132.0012890750886a29.370286819207216 29.370286819207216 0 0 0 27.390267483080883-19.470190138575568h0s0-1.980019336126329 0-2.9700290041894934a28.38027715114405 28.38027715114405 0 0 0 0-7.5900741218175956v0a23.430228810828226 23.430228810828226 0 0 0 0-6.600064453754431 19.140186915887845 19.140186915887845 0 0 0-1.980019336126329-5.610054785691267 12.540122462133418 12.540122462133418 0 0 0 0-3.3000322268772155 21.4502094747019 21.4502094747019 0 0 0-2.9700290041894934-2.6400257815017723 25.410248146954558 25.410248146954558 0 0 0-18.48018047051241-9.900096680631645l-3.3000322268772155 0h-292.38285530132123l8.910087012568482-24.750241701579114A31.02030293264582 31.02030293264582 0 0 0 3387.8130841121488 213.1820818562681l0 0a30.03029326458266 30.03029326458266 0 0 0-36.30035449564937 18.810183693200123l-21.4502094747019 66.0006445375443a25.080244924266836 25.080244924266836 0 0 0 4.29004189494038 25.74025136964228 27.390267483080883 27.390267483080883 0 0 0 23.100225588140503 12.210119239445696h143.55140186915884v35.64034805027393a181.17176925555913 181.17176925555913 0 0 1 0 19.140186915887845h0a63.69062197873025 63.69062197873025 0 0 1 0 20.13019658395101h-161.0415726716081a28.38027715114405 28.38027715114405 0 0 0-28.38027715114405 29.370286819207216v0a28.050273928456328 28.050273928456328 0 0 0 28.38027715114405 28.38027715114405h136.6213341927167c-3.3000322268772155 4.950048340315822-6.270061231066709 9.570093457943923-10.230099903319367 14.850145020947469a242.22236545278759 242.22236545278759 0 0 1-24.42023847889139 28.38027715114405 7.5900741218175956 7.5900741218175956 0 0 0-2.310022558814051 2.310022558814051h0a363.00354495649367 363.00354495649367 0 0 1-128.37125362552368 72.93071221398645v0a29.370286819207216 29.370286819207216 0 0 0-14.520141798259747 25.080244924266836 29.700290041894938 29.700290041894938 0 0 0 29.700290041894938 29.700290041894938l3.3000322268772155 0v0l4.29004189494038 0a25.410248146954558 25.410248146954558 0 0 0 6.270061231066709-2.6400257815017723C3429.393490170802 606.2159200773444 3495.3941347083464 557.3754431195616 3528.3944569771184 493.3548179181437Z"/><path fill="#1768ef" d="M3957.3986464711566 663.3064776023203H3457.1137608765707A94.05091846600064 94.05091846600064 0 0 0 3363.392845633258 757.3573960683209v166.65162745729936a93.7209152433129 93.7209152433129 0 0 0 93.06090879793746 93.7209152433129H3957.3986464711566a93.7209152433129 93.7209152433129 0 0 0 93.06090879793746-93.7209152433129V757.3573960683209A94.05091846600064 94.05091846600064 0 0 0 3957.3986464711566 663.3064776023203Zm33.00032226877215 260.7025459233a33.00032226877215 33.00032226877215 0 0 1-33.00032226877215 33.00032226877215H3457.1137608765707a33.00032226877215 33.00032226877215 0 0 1-33.00032226877215-33.00032226877215V869.5584917821462H3990.3989687399285Zm0-114.18111504995164H3423.783435385111V757.3573960683209a33.00032226877215 33.00032226877215 0 0 1 33.00032226877215-33.00032226877215H3957.3986464711566a33.00032226877215 33.00032226877215 0 0 1 33.00032226877215 33.00032226877215Z"/><path fill="#1768ef" d="M4007.889139542378 243.21237512085077h-144.87141475990973a94.71092491137608 94.71092491137608 0 0 0-93.7209152433129 94.71092491137608V529.9851756364807a94.05091846600064 94.05091846600064 0 0 0 93.7209152433129 94.05091846600064h144.87141475990973a94.71092491137608 94.71092491137608 0 0 0 94.71092491137608-94.05091846600064V337.92330003222685A95.70093457943923 95.70093457943923 0 0 0 4007.889139542378 243.21237512085077Zm34.980341604898484 286.77280051562997a33.00032226877215 33.00032226877215 0 0 1-34.980341604898484 33.00032226877215h-144.87141475990973a33.00032226877215 33.00032226877215 0 0 1-33.00032226877215-33.00032226877215V337.92330003222685a33.00032226877215 33.00032226877215 0 0 1 33.00032226877215-34.980341604898484h144.87141475990973a35.310344827586206 35.310344827586206 0 0 1 34.980341604898484 34.980341604898484Z"/></svg>