<svg viewBox="0 0 6400 1024" version="1.1" xmlns="http://www.w3.org/2000/svg"><path fill="#1768ef" d="M1118.08 275.52c-27.84-8.32-20.16-12.16-23.04-40.64-2.88-29.12-11.84-55.36-24-81.92C1022.4 45.76 896 13.12 791.04 40.32c-65.28 16.96-121.28 80.32-165.12 128.32-37.44 40.96 28.16-15.04 38.08-25.92 95.04-104.32 258.24-38.72 330.24 51.84 27.52 34.56 34.88 80 39.04 122.56 2.56 26.24 92.8 51.52 121.28 70.72 87.04 58.88 135.04 154.24 140.16 257.28 2.56 51.52-11.52 117.76-49.28 155.52-25.6 25.6-105.92 24.32-136.32 22.4-174.4-11.52-203.52-213.76-222.4-348.48-23.36-165.76-176.64-292.48-340.8-291.2-24.32 0.32-48 3.52-71.36 9.28 0 0 0-0.32 0-0.32 5.44-38.72 25.6-67.84 57.92-89.92 8-5.76 4.8-37.12 4.8-44.8 0-2.56-3.84-45.76-4.8-45.12-38.08 26.24-54.4 59.84-62.4 102.08-26.56-28.8-65.6-46.72-105.28-38.4-12.8 2.56-1.6 90.24 0 89.92 35.84-7.36 70.72 6.4 96.96 30.08C227.84 264 60.16 594.88 84.48 812.16c13.44 119.36 119.04 185.28 227.84 185.28 115.84 0 231.68 0 347.52 0 168.96 0 337.92 0 506.88 0 25.28 0 48.96-63.68 63.68-63.68-219.52 0-439.36 0-659.2 0-76.8 0-153.92 0-230.72 0-63.36 0-114.88-42.24-152.32-88.96-75.2-94.08-40.64-230.72-3.2-332.8 58.56-158.72 165.12-278.08 340.8-263.36 167.04 14.08 299.52 177.28 303.36 341.12 4.16 175.36 132.8 335.36 317.44 287.04 99.52-25.92 188.48-143.68 207.68-239.68 21.44-107.2-24.96-207.36-98.88-281.92C1217.92 317.12 1169.28 290.88 1118.08 275.52z"/><g fill="#1768ef" stroke-miterlimit="10"><path d="M2062.4 246.4c0 23.36-3.2 50.88-9.6 85.12l-5.44 32.96c-16.96 99.84-62.72 132.8-136.96 143.36 75.52 12.8 99.84 45.76 99.84 108.48 0 27.52-4.16 58.56-11.84 98.88l-7.36 47.68c-25.6 140.16-93.44 170.88-230.4 170.88h-278.08l141.12-803.84h231.68C2006.08 129.6 2062.4 145.6 2062.4 246.4zM1804.16 531.2h-190.08l-62.72 353.6h203.84c124.16 0 158.08-27.52 178.56-136.96l7.36-43.52c6.4-38.4 10.56-66.88 10.56-91.2C1952 546.88 1913.6 531.2 1804.16 531.2zM2000.64 259.2c0-67.84-29.76-80.64-158.08-80.64h-166.72l-54.08 306.88h184.64c122.24 0 163.52-20.16 181.76-120.96l5.44-28.8C1997.44 305.92 2000.64 279.36 2000.64 259.2z"/><path d="M2578.56 882.56l-21.12 50.88H2143.04l141.12-803.84h60.48l-132.8 752.96H2578.56z"/><path d="M2704.96 782.72c0-30.72 4.16-66.88 16-130.56l91.2-522.56h59.52l-88 507.52c-11.84 64.64-17.92 107.2-17.92 136.96 0 89.28 44.48 115.84 163.52 115.84h69.12c119.04 0 152-36.16 176.32-173.12l104-587.2h59.52l-106.24 603.2c-28.8 163.52-78.72 208-227.2 208h-94.4C2768.64 941.12 2704.96 900.8 2704.96 782.72z"/><path d="M3604.48 179.52l-56.32 320.64h310.08l-21.12 48.96h-297.28l-59.52 333.44h357.76l-22.4 50.88H3411.2l141.12-803.84h401.28l-21.12 49.92H3604.48z"/><path d="M4312 521.6l186.88 412.16h-65.92l-169.92-384.32h-148.8l-67.84 384.32h-60.48l141.12-803.84h60.48l-64.64 369.6h143.36l281.28-369.6h65.92L4312 521.6z"/><path d="M4766.72 129.6h60.48l-141.12 803.84h-61.44L4766.72 129.6z"/><path d="M5545.28 269.76c0 41.28-7.36 90.24-17.92 149.76l-89.28 513.92h-60.48l87.04-499.2c10.56-62.72 19.2-113.6 19.2-152 0-81.92-36.16-103.04-173.12-103.04h-208l-132.8 753.92h-60.48l141.12-803.84h272.96C5488.96 129.6 5545.28 160.32 5545.28 269.76z"/><path d="M5740.8 637.12c-11.84 65.92-17.92 107.2-17.92 136.96 0 89.28 44.48 115.84 169.92 115.84h215.68l66.88-382.4h60.48l-61.44 347.2c-7.36 43.52-13.76 63.68-29.76 74.24-13.76 10.56-32 11.84-65.92 11.84h-203.84c-148.8 0-212.48-40.32-212.48-158.4 0-30.72 4.16-66.88 16-130.56l56.32-315.52c28.8-162.56 80.64-207.04 235.84-207.04h298.56l-22.4 49.92h-270.72c-125.44 0-159.36 37.12-183.68 172.16L5740.8 637.12z"/></g></svg>