<svg viewBox="0 0 1925.12 1024" version="1.1" xmlns="http://www.w3.org/2000/svg"><g fill="none" fill-rule="evenodd"><path fill="#E1ECFF" d="M209.0757349376 39.23968L1814.030569472 39.23968C1859.273736192 39.239679999999915 1895.950569472 75.91651328 1895.950569472 121.15968000000001 1895.950569472 124.41939722240001 1895.756005376 127.67620833280002 1895.367917568 130.9127409664L1800.82225152 919.392739328C1795.8849085440002 960.5685862400001 1760.9557073920002 991.55968 1719.484903424 991.55968L114.5300717568 991.55968C69.28690503680001 991.55968 32.610071674880004 954.88284672 32.610071674880004 909.63968 32.610071674880004 906.379964416 32.804634910720004 903.123152896 33.19272353792 899.886620672L127.73838643200001 111.40661903360001C132.6757310464 70.23077494784 167.6049317888 39.23968000000004 209.0757349376 39.23968Z"/><path fill="#3A84FF" fill-rule="nonzero" d="M735.6279480320002 781.981011968L991.2183480320001 285.87349319680004 909.298348032 285.87349319680004 708.1028280320002 681.710931968 661.572268032 285.87349319680004 574.409388032 285.87349319680004 636.013228032 781.981011968 735.6279480320002 781.981011968ZM1227.1479480320002 781.981011968L1476.8401080320002 346.1666131968 1487.981228032 285.87349319680004 1179.962028032 285.87349319680004 1148.5047480320002 358.6184531968 1383.123628032 358.6184531968 1133.431468032 781.981011968 1227.1479480320002 781.981011968Z" opacity=".9"/></g></svg>