<?xml version="1.0" encoding="utf-8"?>
<!-- Generator: Adobe Illustrator 22.1.0, SVG Export Plug-In . SVG Version: 6.00 Build 0)  -->
<svg version="1.1" id="layer_1" xmlns="http://www.w3.org/2000/svg" xmlns:xlink="http://www.w3.org/1999/xlink" x="0px" y="0px"
	 viewBox="0 0 206.9 36.9" style="enable-background:new 0 0 206.9 36.9;" xml:space="preserve">
<style type="text/css">
	.st0{fill:#4D66C6;}
</style>
<path class="st0" d="M68.5,18.1c1.9-1.3,2.9-3,3-5.1c0-4.3-2.6-6.5-7.9-6.5h-6.1c-1.2,0-1.8,0.5-1.8,1.5v20.9c0,1.1,0.6,1.6,1.8,1.6
	h6.1c5.8,0,8.8-2.4,8.8-7.1C72.3,20.9,71,19.1,68.5,18.1z M58.4,8.9h5c3.8-0.1,5.7,1.3,5.5,4.1c-0.1,2.6-1.8,3.9-5.1,4h-5.4V8.9z
	 M63.6,28.1h-5.2v-8.9h5.4c3.9,0.1,5.9,1.5,6,4.1C69.8,26.6,67.8,28.2,63.6,28.1z"/>
<path class="st0" d="M89.1,28.1H78.6V7.4c0-1-0.4-1.5-1.2-1.5c-0.8,0-1.2,0.5-1.2,1.5v21.5c0.1,1.1,0.6,1.6,1.6,1.6h11.4
	c1.1,0.1,1.6-0.3,1.5-1.2C90.6,28.5,90.1,28.1,89.1,28.1z"/>
<path class="st0" d="M110.3,5.9c-0.8,0-1.2,0.5-1.2,1.6V21c-0.1,5-2.2,7.6-6.2,7.8c-4.2,0-6.3-2.6-6.4-7.8V7.5
	c0-1.1-0.4-1.6-1.2-1.6c-0.8,0-1.2,0.5-1.2,1.6V21c0.1,6.6,3,10,8.9,10.1c5.8-0.1,8.7-3.5,8.8-10.1V7.5
	C111.5,6.4,111.1,5.9,110.3,5.9z"/>
<path class="st0" d="M129.3,8.9c1.1,0,1.6-0.4,1.6-1.1c0-0.8-0.5-1.2-1.6-1.2h-11.6c-1.3-0.1-2,0.5-1.9,1.6v21c0,1,0.5,1.5,1.6,1.4
	h12c1,0,1.5-0.4,1.5-1.1c0-0.8-0.5-1.2-1.5-1.2h-11v-8.9h10c1,0,1.5-0.4,1.5-1.1c0.1-0.8-0.4-1.2-1.5-1.2h-10v-8H129.3z"/>
<path class="st0" d="M141.5,16.3l8.2-7.9c0.5-0.5,0.7-1,0.6-1.4c-0.1-0.7-0.5-1-1.1-1.1c-0.3,0-0.8,0.2-1.4,0.8l-10.6,10.5V7.4
	c0-1-0.4-1.5-1.2-1.5c-0.8,0-1.2,0.5-1.2,1.5v22.4c0.1,1,0.5,1.5,1.2,1.4c0.8,0,1.2-0.5,1.2-1.4v-9.4l2.5-2.4l9.1,12.4
	c0.4,0.5,0.9,0.8,1.4,0.8c0.7-0.1,1-0.5,1.1-1.1c0.1-0.4-0.1-0.9-0.6-1.4L141.5,16.3z"/>
<path class="st0" d="M157.7,5.9c-0.8-0.1-1.2,0.5-1.2,1.6v22.1c0,1.1,0.4,1.6,1.2,1.5c0.8,0,1.2-0.5,1.2-1.5V7.5
	C158.9,6.3,158.5,5.8,157.7,5.9z"/>
<path class="st0" d="M181.3,5.9c-0.9,0-1.4,0.5-1.4,1.5v18.8L168.4,7.4c-0.8-1.1-1.5-1.6-2.1-1.5c-0.9,0-1.4,0.8-1.4,2.2v21.6
	c0.1,1,0.5,1.5,1.2,1.4c0.8,0,1.2-0.5,1.2-1.5V10.5l11.9,19.4c0.5,0.9,1.1,1.3,1.9,1.2c0.9,0,1.4-0.8,1.4-2.2V7.4
	C182.6,6.4,182.1,5.9,181.3,5.9z"/>
<path class="st0" d="M203.3,18.3h-6.6c-0.9,0-1.4,0.4-1.4,1.3c0,0.8,0.5,1.1,1.4,1.1h6.2v3.6c-0.1,2.9-2,4.4-5.8,4.5
	c-5.2-0.2-7.8-3.7-8-10.3c0.3-6.3,3-9.8,8-10.2c2.8,0.2,4.7,1.5,5.8,3.9c0.4,0.8,0.9,1.2,1.4,1c0.9-0.2,1.2-0.8,1-1.8
	c-1.2-3.5-4-5.3-8.1-5.5c-6.6,0.5-10.1,4.7-10.6,12.6c0.4,8.1,4,12.3,10.6,12.6c5.4-0.1,8.2-2.4,8.2-7v-3.9
	C205.5,18.9,204.8,18.3,203.3,18.3z"/>
<path id="Fill-4" class="st0" d="M12.9,6.8C12.1,6.2,11.1,6,10,6.2c-0.1,0-0.5-3.6,0-3.7c1.5-0.4,3,0.3,4,1.4c0,0.2-0.1,0.4-0.1,0.5
	c0.3-1.9,0.8-3.4,2.4-4.5c0,0,0.2,1.7,0.2,1.9c0,0.4,0.1,1.6-0.2,1.9c-0.9,0.7-1.6,1.5-1.9,2.6c1.4-0.4,2.9-0.5,4.4-0.3
	c6,0.8,9.9,6.2,10.4,11.8c0.6,5.7,4.1,12.3,11,10.4c1.5-0.4,2-0.7,2.6-2.3c0.6-1.7,0.7-3.6,0.4-5.4c-0.6-3.3-3-6.2-5.9-7.9
	c-0.7-0.4-1.5-0.6-2.3-1c-0.9-0.5-0.9-0.2-1.1-1.4c-0.2-1.4-0.6-2.8-1.5-4c-2.3-2.9-8.4-5-11.5-1.6c-0.4,0.4-2.9,2.6-1.5,1
	c1.9-2.1,4.1-4.3,7-4.9c4-0.8,8.3,1.4,9.6,5.3c0.3,0.8,0.1,1.8,0.4,2.5c0.3,0.8,0.7,0.7,1.6,1c1.9,0.7,3.6,1.9,4.9,3.4
	c2.5,2.8,3.6,6.8,2.4,10.4c-1.2,3.5-5,7.1-8.7,7.6c-6.5,0.9-9.4-5.3-10-10.7c-0.6-5.9-5-11.5-11.3-11.8C8.6,8,5,13.5,3.2,19.3
	C1.6,24.5,2.5,32,9.3,32.5c2.9,0.2,5.8,0,8.7,0h23.2c-0.6,0-1.5,2.4-2.5,2.4H13.6c-2.2,0-4.6,0.2-6.8,0c-6.7-0.5-7.6-7.9-6.1-13
	C2.3,16.1,6.8,9,12.9,6.8z"/>
</svg>
