<?xml version="1.0" encoding="utf-8"?>
<!-- Generator: Adobe Illustrator 22.1.0, SVG Export Plug-In . SVG Version: 6.00 Build 0)  -->
<svg version="1.1" id="图层_1" xmlns="http://www.w3.org/2000/svg" xmlns:xlink="http://www.w3.org/1999/xlink" x="0px" y="0px"
	 viewBox="0 0 42 18" style="enable-background:new 0 0 42 18;" xml:space="preserve">
<style type="text/css">
	.st0{fill:#F0F1F5;}
	.st1{fill:#979BA5;}
</style>
<title>已下架</title>
<g>
	<path class="st0" d="M28.9,8.3C28.9,8.1,29,7.6,29,6.6H28c-0.1,0.8-0.3,1.4-0.5,1.8c0.4,0,0.7,0,0.9,0C28.7,8.5,28.8,8.4,28.9,8.3z
		"/>
	<rect x="32.1" y="6.4" class="st0" width="1.2" height="1.8"/>
	<path class="st0" d="M40,0H2C0.9,0,0,0.9,0,2v14c0,1.1,0.9,2,2,2h38c1.1,0,2-0.9,2-2V2C42,0.9,41.1,0,40,0z M30.8,5.3h3.8v3.9h-3.8
		V5.3z M25.8,6.6V5.5H27c0-0.3,0-0.5,0-0.8h1.2c0,0.3,0,0.6,0,0.8h2.1c0,2-0.1,3.1-0.2,3.3c-0.1,0.2-0.2,0.4-0.4,0.5
		s-0.8,0.2-1.8,0.2c0-0.3-0.1-0.6-0.3-1.1c-0.3,0.5-0.7,1-1.1,1.4c-0.2-0.2-0.5-0.5-0.9-0.8c0.8-0.7,1.3-1.5,1.4-2.5H25.8z
		 M14.8,12.7c-0.1,0.4-0.3,0.7-0.7,0.9c-0.4,0.2-0.8,0.3-1.4,0.3H8.5c-1.4,0-2.1-0.7-2.1-2.2V7.6h1.4v0.9h4.7V6.5H6.1V5.1H14v4.7
		H7.8v1.8c0,0.7,0.3,1,0.9,1h3.6c0.3,0,0.5,0,0.7-0.1s0.3-0.3,0.3-0.5c0-0.2,0.1-0.8,0.2-1.6c0.6,0.2,1.1,0.4,1.5,0.6
		C15.1,11.7,14.9,12.3,14.8,12.7z M25,6.6h-4.3v1.9l0.9-0.9c1.1,0.8,2.1,1.5,3.2,2.4l-1,1.2c-1.1-1-2.1-1.8-3-2.5v5.4h-1.6V6.6h-3.6
		V5.3H25V6.6z M34.6,14.2c-1.5-0.6-2.7-1.4-3.5-2.5v2.6h-1.4v-2.6c-0.8,1-2,1.8-3.5,2.4c-0.2-0.4-0.4-0.8-0.6-1.1
		c1.2-0.4,2.2-1,3.1-1.7h-2.9v-1.1h4V9.5H31v0.7h4v1.1H32c0.8,0.7,1.9,1.2,3.2,1.6C34.9,13.4,34.7,13.8,34.6,14.2z"/>
	<path class="st1" d="M13.5,12c0,0.2-0.2,0.4-0.3,0.5s-0.4,0.1-0.7,0.1H8.8c-0.6,0-0.9-0.3-0.9-1V9.9H14V5.1H6.1v1.3h6.4v2.1H7.8
		V7.6H6.4v4.2c0,1.5,0.7,2.2,2.1,2.2h4.2c0.6,0,1.1-0.1,1.4-0.3c0.4-0.2,0.6-0.5,0.7-0.9s0.2-1,0.4-1.8c-0.4-0.1-0.9-0.3-1.5-0.6
		C13.6,11.2,13.5,11.7,13.5,12z"/>
	<path class="st1" d="M15.6,6.6h3.6v7.6h1.6V8.9c0.9,0.7,1.9,1.5,3,2.5l1-1.2c-1.1-0.8-2.1-1.6-3.2-2.4l-0.9,0.9V6.6H25V5.3h-9.4
		V6.6z"/>
	<path class="st1" d="M34.6,5.3h-3.8v3.9h3.8V5.3z M33.3,8.2h-1.2V6.4h1.2V8.2z"/>
	<path class="st1" d="M35.1,11.3v-1.1h-4V9.5h-1.4v0.7h-4v1.1h2.9c-0.9,0.7-1.9,1.3-3.1,1.7c0.2,0.3,0.4,0.7,0.6,1.1
		c1.5-0.6,2.7-1.4,3.5-2.4v2.6H31v-2.6c0.9,1.1,2.1,1.9,3.5,2.5c0.2-0.4,0.4-0.8,0.6-1.2c-1.3-0.4-2.4-0.9-3.2-1.6H35.1z"/>
	<path class="st1" d="M25.5,9.1c0.4,0.3,0.7,0.6,0.9,0.8c0.5-0.4,0.9-0.8,1.1-1.4c0.2,0.4,0.3,0.8,0.3,1.1c1,0,1.6-0.1,1.8-0.2
		s0.3-0.3,0.4-0.5c0.1-0.2,0.2-1.3,0.2-3.3h-2.1c0-0.3,0-0.5,0-0.8H27c0,0.3,0,0.6,0,0.8h-1.2v1.1h1.1C26.8,7.6,26.3,8.4,25.5,9.1z
		 M28,6.6H29c0,1-0.1,1.5-0.1,1.6c-0.1,0.1-0.2,0.2-0.4,0.2c-0.2,0-0.5,0-0.9,0C27.8,8,27.9,7.4,28,6.6z"/>
</g>
</svg>
