<svg id="图层_1" data-name="图层 1" xmlns="http://www.w3.org/2000/svg" xmlns:xlink="http://www.w3.org/1999/xlink" viewBox="0 0 19 17"><defs><linearGradient id="linear-gradient" x1="6.13" y1="3.7" x2="7.02" y2="2.16" gradientUnits="userSpaceOnUse"><stop offset="0" stop-color="#00a6fd"/><stop offset="0.44" stop-color="#2a87f0"/><stop offset="1" stop-color="#00c7db"/></linearGradient><linearGradient id="linear-gradient-2" x1="6.82" y1="14.88" x2="13.45" y2="3.4" xlink:href="#linear-gradient"/></defs><title>logo图标</title><path d="M5.61,3.84a1.32,1.32,0,0,1,1.24.47s0-.17,0-.16a1.52,1.52,0,0,1,.68-1.07c.1-.07.06-.45.06-.54S7.58,2,7.57,2a1.87,1.87,0,0,0-.76,1.39c0-.05,0-.1,0-.15a1.3,1.3,0,0,0-1.24-.48c-.15,0,0,1.08,0,1.08Z" style="fill:url(#linear-gradient)"/><path d="M15.73,13H5.33A2.39,2.39,0,0,1,3.54,12c-.88-1.13-.47-2.76,0-4,.68-1.9,1.93-3.33,4-3.15A4.21,4.21,0,0,1,11,8.91c.05,2.1,1.56,4,3.72,3.44a4,4,0,0,0,2.42-2.87A3.81,3.81,0,0,0,16,6.11a3.91,3.91,0,0,0-1.61-1c-.33-.1-.24-.15-.27-.49a3.34,3.34,0,0,0-.28-1,2.73,2.73,0,0,0-3.28-1.34A4.62,4.62,0,0,0,8.66,3.87c-.44.49.33-.18.45-.31,1.11-1.25,3-.46,3.86.62a2.83,2.83,0,0,1,.46,1.47c0,.31,1.08.62,1.42.85a3.91,3.91,0,0,1,1.63,3.08,2.64,2.64,0,0,1-.57,1.86c-.3.31-1.24.29-1.6.27-2-.14-2.38-2.56-2.6-4.18a4.08,4.08,0,0,0-4-3.48c-3.24,0-5.72,4.62-5.4,7.53A2.56,2.56,0,0,0,5,13.8H15c.29,0,.57-.77.74-.77Z" style="fill:url(#linear-gradient-2)"/></svg>