<svg id="图层_1" data-name="图层 1" xmlns="http://www.w3.org/2000/svg" viewBox="0 0 40 17"><title>文字</title><path d="M9.47,6.78h0a.32.32,0,0,0-.33-.33H5.74l.14-.37a.35.35,0,0,0-.21-.42l0,0a.33.33,0,0,0-.42.19l-.32.85a.33.33,0,0,0,.31.45H9.14A.32.32,0,0,0,9.47,6.78Z" style="fill:#1d91ec"/><path d="M3.69,5.63A.34.34,0,0,0,3.36,6V8.75a.35.35,0,0,0,.33.34h0A.35.35,0,0,0,4,8.75V6a.34.34,0,0,0-.33-.34Z" style="fill:#1d91ec"/><path d="M1,4.87H2.52v.29a.33.33,0,0,0,.32.34h0a.33.33,0,0,0,.33-.34V4.87h4v.29a.33.33,0,0,0,.32.34h0a.34.34,0,0,0,.33-.34V4.87H9.39a.34.34,0,0,0,.33-.34h0a.34.34,0,0,0-.33-.34H7.87V3.86a.34.34,0,0,0-.33-.33h0a.34.34,0,0,0-.32.33v.32h-4V3.86a.33.33,0,0,0-.33-.33h0a.33.33,0,0,0-.32.33v.32H1a.33.33,0,0,0-.32.34h0A.33.33,0,0,0,1,4.87Z" style="fill:#1d91ec"/><path d="M5.37,8.12a.32.32,0,0,0-.32.34h0a.32.32,0,0,0,.32.33H8.91a.32.32,0,0,0,.33-.33h0a.32.32,0,0,0-.33-.34Z" style="fill:#1d91ec"/><path d="M2.76,9.35a.32.32,0,0,0-.32.34h0a.32.32,0,0,0,.32.33H6.29a.33.33,0,0,0,.33-.33h0a.32.32,0,0,0-.33-.34Z" style="fill:#1d91ec"/><path d="M1.92,6a.34.34,0,0,0-.33.34v2.2a.34.34,0,0,0,.33.34h0a.34.34,0,0,0,.33-.34V6.29A.35.35,0,0,0,1.94,6Z" style="fill:#1d91ec"/><path d="M19.49,4.44H17.67V3.92a.34.34,0,0,0-.34-.34h0a.34.34,0,0,0-.33.34v.52H15.15a.34.34,0,0,0-.33.34v0a.34.34,0,0,0,.33.34h4.34a.33.33,0,0,0,.33-.34v0A.34.34,0,0,0,19.49,4.44Z" style="fill:#1d91ec"/><path d="M13.4,6.76h0Z" style="fill:#1d91ec"/><path d="M13,6.33a.4.4,0,0,0,.07.24V6.1A.39.39,0,0,0,13,6.33Z" style="fill:#1d91ec"/><path d="M14.41,6.35a.84.84,0,0,0-.62-.27l.42-1a.36.36,0,0,0,0-.32.32.32,0,0,0-.28-.16H12l.1-.29a.36.36,0,0,0-.22-.43h0a.35.35,0,0,0-.42.22l-.24.77a.3.3,0,0,0,.05.3.3.3,0,0,0,.26.14h1.89l-.33.83v.49a.43.43,0,0,0,.32.19h0l.07,0-.07,0h.24a.35.35,0,0,1,.35.35.48.48,0,0,1,0,.12V9.06L11.57,6.25a.34.34,0,0,0-.29-.17h0a.34.34,0,0,0-.33.34v4.19h0a0,0,0,0,1,0,0,.88.88,0,0,0,.25.51.8.8,0,0,0,.63.27h2a.72.72,0,0,0,.33-.07.93.93,0,0,0,.56-.84V7A.85.85,0,0,0,14.41,6.35Zm-.85.37h0Zm.06,0h0Zm.19-.29v0Zm0,.06v0ZM14,10.39a.36.36,0,0,1-.35.36H12a.34.34,0,0,1-.34-.3h0V7.38L13.92,10a.39.39,0,0,0,.1.08v.18A.41.41,0,0,1,14,10.39Z" style="fill:#1d91ec"/><path d="M19.44,12.16h0a.31.31,0,0,1-.29-.32V9.94a.35.35,0,0,0-.35-.36.36.36,0,0,0-.35.36v2a.9.9,0,0,0,.89.91h.12a.34.34,0,0,0,.17-.05.35.35,0,0,0,.18-.31A.29.29,0,0,0,19.44,12.16Z" style="fill:#1d91ec"/><path d="M16,9.58a.35.35,0,0,0-.35.36v1.91a.29.29,0,0,1-.28.3H9V10.44A1.12,1.12,0,0,0,8.88,10a1.07,1.07,0,0,0-1-.67H2.7V10h1v2.11H1a.33.33,0,0,0-.32.34h0a.33.33,0,0,0,.32.34H15.43a.9.9,0,0,0,.89-.91v-2A.36.36,0,0,0,16,9.58ZM6,12.15H4.41V10H6Zm2.26,0H6.68V10H7.89a.32.32,0,0,1,.27.11.44.44,0,0,1,.11.29Z" style="fill:#1d91ec"/><path d="M9.43,12.84a.33.33,0,0,0,.32-.34h0a.33.33,0,0,0-.32-.34H6.68V10h1V9.35H2.53a1,1,0,0,0-1,.67,1,1,0,0,0-.09.42v1.71m3-2.11H6v2.11H4.41Zm-2.26.4a.44.44,0,0,1,.11-.29A.32.32,0,0,1,2.53,10H3.74v2.11H2.15Z" style="fill:#1d91ec"/><path d="M19.47,6.45a1.17,1.17,0,0,0-.22-.34,1.08,1.08,0,0,0-.76-.33H17.17v.7h1.32a.33.33,0,0,1,.26.11.46.46,0,0,1,.11.29V8.14a.41.41,0,0,1-.11.28.31.31,0,0,1-.26.12H16.17a.4.4,0,0,1-.3-.12.41.41,0,0,1-.11-.28V7.36h-.67v.78a1.06,1.06,0,0,0,.32.77,1,1,0,0,0,.76.32l.84,0v3.32a.33.33,0,0,0,.34.34.36.36,0,0,0,.35-.36V9.25l.78,0a1.05,1.05,0,0,0,.76-.32,1.27,1.27,0,0,0,.31-.77V6.88A1.27,1.27,0,0,0,19.47,6.45Z" style="fill:#1d91ec"/><path d="M15.18,6.45a1.17,1.17,0,0,1,.22-.34,1.06,1.06,0,0,1,.76-.33h1.31v.7H16.16a.35.35,0,0,0-.27.11.46.46,0,0,0-.11.29V8.14a.41.41,0,0,0,.11.28.33.33,0,0,0,.27.12h2.32a.38.38,0,0,0,.29-.12.41.41,0,0,0,.11-.28V7.36h.68v.78a1.06,1.06,0,0,1-.32.77,1,1,0,0,1-.76.32h-.74v3.32a.36.36,0,0,1-.35.36.35.35,0,0,1-.35-.36V9.23h-.88a1,1,0,0,1-.76-.32,1.27,1.27,0,0,1-.31-.77V6.88A1.27,1.27,0,0,1,15.18,6.45Z" style="fill:#1d91ec"/><path d="M21.16,8.15a.34.34,0,1,1-.67,0,.34.34,0,1,1,.67,0Z" style="fill:#1d91ec"/><path d="M31.44,4a.32.32,0,0,0-.29.34h0a.31.31,0,0,0,.29.33h7.48a.31.31,0,0,0,.3-.33h0a.32.32,0,0,0-.3-.34Z" style="fill:#1d91ec"/><path d="M31.05,6.78a.3.3,0,0,0-.28.34h0a.3.3,0,0,0,.28.33h8.34a.31.31,0,0,0,.3-.33h0a.31.31,0,0,0-.3-.34Z" style="fill:#1d91ec"/><path d="M39.07,9.58a.34.34,0,1,1-.34-.35A.35.35,0,0,1,39.07,9.58Z" style="fill:#1d91ec"/><path d="M38.39,11.56a.59.59,0,0,1-.58.59h-5.7l1.08-4.69H32.5l-1.19,5.38h6.5a1.26,1.26,0,0,0,1.25-1.28v-2h-.67Z" style="fill:#1d91ec"/><path d="M21,5.78a.33.33,0,0,0-.32.34v0a.32.32,0,0,0,.32.33h4.17a.33.33,0,0,0,.33-.33v0a.33.33,0,0,0-.33-.34Z" style="fill:#1d91ec"/><path d="M25.29,4.69a.36.36,0,0,0,0-.32A.33.33,0,0,0,25,4.21H21.66l.1-.29a.36.36,0,0,0-.22-.43h0a.33.33,0,0,0-.41.22l-.24.77a.26.26,0,0,0,.05.3.31.31,0,0,0,.26.15h3.27" style="fill:#1d91ec"/><path d="M25.65,8.12a.35.35,0,0,1-.34.35.35.35,0,0,1,0-.7A.35.35,0,0,1,25.65,8.12Z" style="fill:#1d91ec"/><path d="M23.15,6.75l1.91,1.64.44-.52L24,6.53l-.5-.69a2.92,2.92,0,0,0,0-.51V4.89h-.68v.44a1.62,1.62,0,0,1,0,.22h0s.11.41-.39,1.09a2.73,2.73,0,0,1-.28.33l0,0h0a4,4,0,0,1-1.45.85l.21.65A3.83,3.83,0,0,0,23.15,6.75Z" style="fill:#1d91ec"/><path d="M28,8.73H22.33a1.08,1.08,0,0,0-1.06,1.09v1.93a1.08,1.08,0,0,0,1.06,1.09H28a1.08,1.08,0,0,0,1-1.09V9.82A1.08,1.08,0,0,0,28,8.73Zm.37,3a.38.38,0,0,1-.37.4H22.33a.38.38,0,0,1-.38-.4v-.63h6.43Zm0-1.32H22V9.82a.38.38,0,0,1,.38-.4H28a.38.38,0,0,1,.37.4Z" style="fill:#1d91ec"/><path d="M28.57,3.85H26.93A1.08,1.08,0,0,0,25.87,5V7.18a1.07,1.07,0,0,0,1.06,1.09h1.64a1.09,1.09,0,0,0,1.08-1.09V5A1.1,1.1,0,0,0,28.57,3.85ZM29,7.18a.4.4,0,0,1-.4.4H26.93a.39.39,0,0,1-.39-.4V5a.4.4,0,0,1,.39-.41h1.64A.4.4,0,0,1,29,5Z" style="fill:#1d91ec"/><rect x="23.83" y="4.53" width="1.14" height="0.38" style="fill:#1d91ec"/><path d="M25.31,4.56A.34.34,0,1,1,25,4.21.35.35,0,0,1,25.31,4.56Z" style="fill:#1d91ec"/></svg>